:FULLY-SPECIFIED
:FORCE-ALL-JOINTS-BE-3DOF
:DEGREES
324
root 9.8093 16.8621 8.81881 6.98856 6.90372 2.92991
lfemur 0.222927 2.81903 -25.3857
ltibia 18.3535 -0 0
lfoot -14.1593 4.21217 0.0181766
ltoes -0.702692 0 0
rfemur -35.105 15.9236 8.48979
rtibia 27.1191 -0 0
rfoot -27.9262 -13.3433 0.541598
rtoes -20.3008 0 0
lowerback -7.36861 -3.69089 -5.0595
upperback -0.696523 -4.57995 2.12253
thorax 4.0728 -2.38273 4.47552
lowerneck -19.3129 -5.09632 -13.1353
upperneck 21.4533 -6.44397 12.9469
head 11.0022 -2.52402 5.97159
lclavicle -5.27334e-14 -5.86579e-15 3.28699e-30
lhumerus -21.9577 -30.9904 93.4791
lradius 34.2582 -0 0
lwrist 16.1301 0 0
lhand -12.1916 -21.0774 0.00870369
lfingers 7.12502 -0 0
lthumb 13.8721 8.43579 0.00750119
rclavicle -5.27334e-14 -5.86579e-15 3.28699e-30
rhumerus -45.5493 9.92696 -83.9076
rradius 37.6457 -0 0
rwrist -20.8684 0 0
rhand -29.8629 -26.7575 -0.000127923
rfingers 7.12502 -0 0
rthumb -3.18504 -56.7135 -0.000124365
325
root 9.79729 16.8667 8.97381 6.97326 6.87356 2.80165
lfemur -0.497884 2.85101 -25.1837
ltibia 19.3731 -0 0
lfoot -14.1436 4.38287 0.0187405
ltoes -0.81675 0 0
rfemur -34.6331 15.7717 8.99242
rtibia 27.2079 -0 0
rfoot -27.7002 -12.9882 0.558452
rtoes -20.1538 0 0
lowerback -7.33579 -3.61779 -4.95126
upperback -0.70173 -4.49333 2.13648
thorax 4.03425 -2.33699 4.44047
lowerneck -19.3166 -5.11807 -13.1462
upperneck 21.4337 -6.47703 12.9764
head 11.0027 -2.53635 5.97877
lclavicle -5.124e-14 -6.19166e-15 3.38891e-30
lhumerus -22.5272 -30.7559 93.6573
lradius 34.1307 -0 0
lwrist 16.0375 0 0
lhand -12.2381 -21.105 0.00897359
lfingers 7.12502 -0 0
lthumb 13.8273 8.41103 0.0077338
rclavicle -5.124e-14 -6.19166e-15 3.38891e-30
rhumerus -45.3244 10.107 -83.9434
rradius 37.7699 -0 0
rwrist -20.9149 0 0
rhand -29.8659 -26.7511 -0.000131889
rfingers 7.12502 -0 0
rthumb -3.18788 -56.707 -0.000128221
326
root 9.78527 16.8713 9.12882 6.95802 6.84337 2.6734
lfemur -1.2186 2.88553 -24.9822
ltibia 20.3928 -0 0
lfoot -14.1278 4.55357 0.0192575
ltoes -0.930807 0 0
rfemur -34.1629 15.6157 9.49335
rtibia 27.2967 -0 0
rfoot -27.474 -12.6331 0.573905
rtoes -20.0068 0 0
lowerback -7.30283 -3.54476 -4.84298
upperback -0.706915 -4.4067 2.15043
thorax 3.99568 -2.29128 4.4054
lowerneck -19.3203 -5.13983 -13.1572
upperneck 21.4142 -6.51008 13.0059
head 11.0032 -2.54869 5.98594
lclavicle -4.97467e-14 -6.51754e-15 3.48234e-30
lhumerus -23.0944 -30.5199 93.8323
lradius 34.0032 -0 0
lwrist 15.945 0 0
lhand -12.2846 -21.1327 0.009221
lfingers 7.12502 -0 0
lthumb 13.7824 8.38627 0.00794702
rclavicle -4.97467e-14 -6.51754e-15 3.48234e-30
rhumerus -45.0995 10.2871 -83.9786
rradius 37.894 -0 0
rwrist -20.9614 0 0
rhand -29.8688 -26.7446 -0.000135525
rfingers 7.12502 -0 0
rthumb -3.19071 -56.7005 -0.000131756
327
root 9.77326 16.876 9.28383 6.94286 6.81314 2.54517
lfemur -1.93921 2.92258 -24.781
ltibia 21.4124 -0 0
lfoot -14.112 4.72428 0.0197275
ltoes -1.04487 0 0
rfemur -33.6945 15.4558 9.99255
rtibia 27.3855 -0 0
rfoot -27.2478 -12.2778 0.587956
rtoes -19.8598 0 0
lowerback -7.26973 -3.47178 -4.73467
upperback -0.712078 -4.32007 2.16436
thorax 3.95707 -2.2456 4.37029
lowerneck -19.324 -5.16159 -13.1682
upperneck 21.3946 -6.54312 13.0353
head 11.0037 -2.56103 5.99312
lclavicle -4.82534e-14 -6.84342e-15 3.56727e-30
lhumerus -23.6594 -30.2824 94.0041
lradius 33.8757 -0 0
lwrist 15.8524 0 0
lhand -12.3312 -21.1604 0.00944591
lfingers 7.12502 -0 0
lthumb 13.7376 8.3615 0.00814086
rclavicle -4.82534e-14 -6.84342e-15 3.56727e-30
rhumerus -44.8746 10.4673 -84.0131
rradius 38.0182 -0 0
rwrist -21.0079 0 0
rhand -29.8717 -26.7382 -0.000138831
rfingers 7.12502 -0 0
rthumb -3.19355 -56.694 -0.00013497
328
root 9.76124 16.8806 9.43884 6.92776 6.78288 2.41695
lfemur -2.65971 2.96215 -24.5804
ltibia 22.4321 -0 0
lfoot -14.0962 4.89498 0.0201505
ltoes -1.15892 0 0
rfemur -33.228 15.292 10.49
rtibia 27.4743 -0 0
rfoot -27.0215 -11.9226 0.600604
rtoes -19.7128 0 0
lowerback -7.2365 -3.39887 -4.62633
upperback -0.71722 -4.23345 2.17829
thorax 3.91844 -2.19993 4.33515
lowerneck -19.3277 -5.18335 -13.1791
upperneck 21.375 -6.57615 13.0649
head 11.0042 -2.57337 6.00029
lclavicle -4.67601e-14 -7.1693e-15 3.64371e-30
lhumerus -24.2223 -30.0435 94.1728
lradius 33.7482 -0 0
lwrist 15.7598 0 0
lhand -12.3777 -21.1881 0.00964834
lfingers 7.12502 -0 0
lthumb 13.6927 8.33674 0.00831532
rclavicle -4.67601e-14 -7.1693e-15 3.64371e-30
rhumerus -44.6497 10.6477 -84.0468
rradius 38.1424 -0 0
rwrist -21.0544 0 0
rhand -29.8747 -26.7317 -0.000141806
rfingers 7.12502 -0 0
rthumb -3.19638 -56.6875 -0.000137862
329
root 9.74922 16.8852 9.59385 6.91273 6.75258 2.28875
lfemur -3.3801 3.00423 -24.3802
ltibia 23.4517 -0 0
lfoot -14.0805 5.06568 0.0205265
ltoes -1.27298 0 0
rfemur -32.7633 15.1243 10.9857
rtibia 27.5631 -0 0
rfoot -26.7951 -11.5673 0.611849
rtoes -19.5658 0 0
lowerback -7.20313 -3.32602 -4.51795
upperback -0.722339 -4.14682 2.19221
thorax 3.87978 -2.15429 4.29998
lowerneck -19.3314 -5.20512 -13.1901
upperneck 21.3554 -6.60916 13.0944
head 11.0047 -2.58571 6.00747
lclavicle -4.52667e-14 -7.49517e-15 3.71166e-30
lhumerus -24.783 -29.8031 94.3384
lradius 33.6207 -0 0
lwrist 15.6673 0 0
lhand -12.4242 -21.2158 0.00982827
lfingers 7.12502 -0 0
lthumb 13.6479 8.31198 0.00847039
rclavicle -4.52667e-14 -7.49517e-15 3.71166e-30
rhumerus -44.4247 10.8283 -84.0799
rradius 38.2665 -0 0
rwrist -21.1009 0 0
rhand -29.8776 -26.7253 -0.00014445
rfingers 7.12502 -0 0
rthumb -3.19921 -56.681 -0.000140433
330
root 9.73721 16.8898 9.74886 6.89777 6.72225 2.16057
lfemur -4.10036 3.04883 -24.1806
ltibia 24.4713 -0 0
lfoot -14.0647 5.23638 0.0208555
ltoes -1.38704 0 0
rfemur -32.3005 14.9527 11.4795
rtibia 27.6519 -0 0
rfoot -26.5686 -11.2119 0.621689
rtoes -19.4188 0 0
lowerback -7.16963 -3.25323 -4.40953
upperback -0.727438 -4.06018 2.20612
thorax 3.8411 -2.10867 4.26479
lowerneck -19.3351 -5.22688 -13.201
upperneck 21.3357 -6.64217 13.1239
head 11.0052 -2.59805 6.01464
lclavicle -4.37734e-14 -7.82105e-15 3.77111e-30
lhumerus -25.3415 -29.5614 94.5009
lradius 33.4932 -0 0
lwrist 15.5747 0 0
lhand -12.4708 -21.2435 0.00998571
lfingers 7.12502 -0 0
lthumb 13.603 8.28721 0.00860608
rclavicle -4.37734e-14 -7.82105e-15 3.77111e-30
rhumerus -44.1997 11.0089 -84.1122
rradius 38.3907 -0 0
rwrist -21.1474 0 0
rhand -29.8805 -26.7188 -0.000146764
rfingers 7.12502 -0 0
rthumb -3.20205 -56.6745 -0.000142682
331
root 9.72519 16.8945 9.90387 6.88288 6.69189 2.0324
lfemur -4.8205 3.09593 -23.9816
ltibia 25.491 -0 0
lfoot -14.0489 5.40708 0.0211375
ltoes -1.5011 0 0
rfemur -31.8396 14.7772 11.9715
rtibia 27.7407 -0 0
rfoot -26.3421 -10.8565 0.630124
rtoes -19.2718 0 0
lowerback -7.13599 -3.1805 -4.30108
upperback -0.732514 -3.97355 2.22002
thorax 3.80239 -2.06308 4.22956
lowerneck -19.3388 -5.24864 -13.212
upperneck 21.3161 -6.67517 13.1535
head 11.0057 -2.61039 6.02182
lclavicle -4.22801e-14 -8.14693e-15 3.82208e-30
lhumerus -25.8979 -29.3183 94.6603
lradius 33.3657 -0 0
lwrist 15.4822 0 0
lhand -12.5173 -21.2712 0.0101207
lfingers 7.12502 -0 0
lthumb 13.5582 8.26245 0.00872239
rclavicle -4.22801e-14 -8.14693e-15 3.82208e-30
rhumerus -43.9747 11.1897 -84.1439
rradius 38.5148 -0 0
rwrist -21.1939 0 0
rhand -29.8835 -26.7123 -0.000148747
rfingers 7.12502 -0 0
rthumb -3.20488 -56.668 -0.00014461
332
root 9.71317 16.8991 10.0589 6.86806 6.6615 1.90425
lfemur -5.54049 3.14552 -23.7831
ltibia 26.5106 -0 0
lfoot -14.0331 5.57779 0.0213726
ltoes -1.61515 0 0
rfemur -31.3807 14.598 12.4616
rtibia 27.8295 -0 0
rfoot -26.1155 -10.5011 0.637154
rtoes -19.1248 0 0
lowerback -7.10222 -3.10784 -4.1926
upperback -0.737569 -3.88692 2.23391
thorax 3.76365 -2.01751 4.1943
lowerneck -19.3425 -5.2704 -13.2229
upperneck 21.2964 -6.70816 13.183
head 11.0062 -2.62274 6.02899
lclavicle -4.07867e-14 -8.4728e-15 3.86454e-30
lhumerus -26.4522 -29.0739 94.8166
lradius 33.2382 -0 0
lwrist 15.3896 0 0
lhand -12.5638 -21.2989 0.0102331
lfingers 7.12502 -0 0
lthumb 13.5133 8.23769 0.00881931
rclavicle -4.07867e-14 -8.4728e-15 3.86454e-30
rhumerus -43.7496 11.3706 -84.1748
rradius 38.639 -0 0
rwrist -21.2404 0 0
rhand -29.8864 -26.7059 -0.0001504
rfingers 7.12502 -0 0
rthumb -3.20772 -56.6615 -0.000146217
333
root 9.70116 16.9037 10.2139 6.85331 6.63107 1.77611
lfemur -6.26035 3.1976 -23.5853
ltibia 27.5303 -0 0
lfoot -14.0174 5.74849 0.0215606
ltoes -1.72921 0 0
rfemur -30.9237 14.415 12.9498
rtibia 27.9183 -0 0
rfoot -25.8889 -10.1456 0.642779
rtoes -18.9778 0 0
lowerback -7.06831 -3.03525 -4.08408
upperback -0.742602 -3.80028 2.24779
thorax 3.72489 -1.97197 4.15902
lowerneck -19.3462 -5.29217 -13.2339
upperneck 21.2767 -6.74114 13.2126
head 11.0067 -2.63508 6.03616
lclavicle -3.92934e-14 -8.79868e-15 3.89852e-30
lhumerus -27.0044 -28.8282 94.9699
lradius 33.1107 -0 0
lwrist 15.2971 0 0
lhand -12.6103 -21.3266 0.0103231
lfingers 7.12502 -0 0
lthumb 13.4685 8.21293 0.00889685
rclavicle -3.92934e-14 -8.79868e-15 3.89852e-30
rhumerus -43.5245 11.5516 -84.2051
rradius 38.7631 -0 0
rwrist -21.2869 0 0
rhand -29.8893 -26.6994 -0.000151722
rfingers 7.12502 -0 0
rthumb -3.21055 -56.655 -0.000147503
334
root 9.68914 16.9083 10.3689 6.83863 6.60061 1.64799
lfemur -6.98006 3.25215 -23.3882
ltibia 28.5499 -0 0
lfoot -14.0016 5.91919 0.0217016
ltoes -1.84327 0 0
rfemur -30.4688 14.2282 13.4361
rtibia 28.0071 -0 0
rfoot -25.6623 -9.79015 0.646998
rtoes -18.8308 0 0
lowerback -7.03427 -2.96271 -3.97553
upperback -0.747614 -3.71365 2.26166
thorax 3.68609 -1.92645 4.1237
lowerneck -19.3499 -5.31393 -13.2448
upperneck 21.257 -6.77411 13.2422
head 11.0072 -2.64742 6.04334
lclavicle -3.78001e-14 -9.12456e-15 3.924e-30
lhumerus -27.5546 -28.5812 95.12
lradius 32.9832 -0 0
lwrist 15.2045 0 0
lhand -12.6569 -21.3543 0.0103906
lfingers 7.12502 -0 0
lthumb 13.4236 8.18816 0.008955
rclavicle -3.78001e-14 -9.12456e-15 3.924e-30
rhumerus -43.2994 11.7327 -84.2346
rradius 38.8873 -0 0
rwrist -21.3334 0 0
rhand -29.8923 -26.693 -0.000152714
rfingers 7.12502 -0 0
rthumb -3.21338 -56.6485 -0.000148467
